<mxfile host="65bd71144e">
    <diagram id="xRf6SAPZhwbW-4TqMHHV" name="Page-1">
        <mxGraphModel dx="754" dy="411" grid="1" gridSize="10" guides="1" tooltips="1" connect="1" arrows="1" fold="1" page="1" pageScale="1" pageWidth="850" pageHeight="1100" background="#ffffff" math="0" shadow="0">
            <root>
                <mxCell id="0"/>
                <mxCell id="1" parent="0"/>
                <mxCell id="2" value="&lt;font style=&quot;font-size: 12px;&quot; face=&quot;Times New Roman&quot; color=&quot;#000000&quot;&gt;Node&lt;/font&gt;" style="rounded=0;whiteSpace=wrap;html=1;strokeColor=#000000;fillColor=none;align=left;verticalAlign=top;" vertex="1" parent="1">
                    <mxGeometry x="80" y="160" width="160" height="80" as="geometry"/>
                </mxCell>
                <mxCell id="4" value="" style="endArrow=blockThin;html=1;fontFamily=Times New Roman;fontSize=14;fontColor=#000000;strokeColor=#000000;endFill=1;" edge="1" parent="1">
                    <mxGeometry width="50" height="50" relative="1" as="geometry">
                        <mxPoint x="140" y="160" as="sourcePoint"/>
                        <mxPoint x="140" y="120" as="targetPoint"/>
                    </mxGeometry>
                </mxCell>
                <mxCell id="6" value="&lt;font style=&quot;font-size: 14px;&quot; face=&quot;Times New Roman&quot; color=&quot;#000000&quot;&gt;Computation API&lt;/font&gt;" style="rounded=0;whiteSpace=wrap;html=1;strokeColor=#000000;fillColor=none;" vertex="1" parent="1">
                    <mxGeometry x="110" y="80" width="100" height="40" as="geometry"/>
                </mxCell>
                <mxCell id="7" value="parameters" style="text;html=1;strokeColor=none;fillColor=none;align=right;verticalAlign=middle;whiteSpace=wrap;rounded=0;fontFamily=Times New Roman;fontSize=14;fontColor=#000000;" vertex="1" parent="1">
                    <mxGeometry x="60" y="130" width="80" height="20" as="geometry"/>
                </mxCell>
                <mxCell id="8" value="computation time" style="text;html=1;strokeColor=none;fillColor=none;align=left;verticalAlign=middle;whiteSpace=wrap;rounded=0;fontFamily=Times New Roman;fontSize=14;fontColor=#000000;" vertex="1" parent="1">
                    <mxGeometry x="180" y="130" width="110" height="20" as="geometry"/>
                </mxCell>
                <mxCell id="9" value="" style="endArrow=blockThin;html=1;fontFamily=Times New Roman;fontSize=14;fontColor=#000000;strokeColor=#000000;endFill=1;" edge="1" parent="1">
                    <mxGeometry width="50" height="50" relative="1" as="geometry">
                        <mxPoint x="180" y="120" as="sourcePoint"/>
                        <mxPoint x="180" y="160" as="targetPoint"/>
                    </mxGeometry>
                </mxCell>
                <mxCell id="10" value="" style="endArrow=blockThin;html=1;fontFamily=Times New Roman;fontSize=14;fontColor=#000000;strokeColor=#000000;endFill=1;" edge="1" parent="1">
                    <mxGeometry width="50" height="50" relative="1" as="geometry">
                        <mxPoint x="130" y="320" as="sourcePoint"/>
                        <mxPoint x="130" y="360" as="targetPoint"/>
                    </mxGeometry>
                </mxCell>
                <mxCell id="11" value="send" style="text;html=1;strokeColor=none;fillColor=none;align=right;verticalAlign=middle;whiteSpace=wrap;rounded=0;fontFamily=Times New Roman;fontSize=14;fontColor=#000000;" vertex="1" parent="1">
                    <mxGeometry x="50" y="330" width="80" height="20" as="geometry"/>
                </mxCell>
                <mxCell id="12" value="" style="endArrow=blockThin;html=1;fontFamily=Times New Roman;fontSize=14;fontColor=#000000;strokeColor=#000000;endFill=1;" edge="1" parent="1">
                    <mxGeometry width="50" height="50" relative="1" as="geometry">
                        <mxPoint x="190" y="360" as="sourcePoint"/>
                        <mxPoint x="190" y="320" as="targetPoint"/>
                    </mxGeometry>
                </mxCell>
                <mxCell id="13" value="receive" style="text;html=1;strokeColor=none;fillColor=none;align=left;verticalAlign=middle;whiteSpace=wrap;rounded=0;fontFamily=Times New Roman;fontSize=14;fontColor=#000000;" vertex="1" parent="1">
                    <mxGeometry x="190" y="330" width="110" height="20" as="geometry"/>
                </mxCell>
                <mxCell id="14" value="&lt;font style=&quot;font-size: 14px;&quot; face=&quot;Times New Roman&quot; color=&quot;#000000&quot;&gt;Global Events&lt;br&gt;Communication API&lt;/font&gt;" style="rounded=0;whiteSpace=wrap;html=1;strokeColor=#000000;fillColor=none;" vertex="1" parent="1">
                    <mxGeometry x="80" y="360" width="680" height="40" as="geometry"/>
                </mxCell>
                <mxCell id="20" value="" style="group" vertex="1" connectable="0" parent="1">
                    <mxGeometry x="110" y="170" width="130" height="10" as="geometry"/>
                </mxCell>
                <mxCell id="15" value="computation" style="rounded=0;whiteSpace=wrap;html=1;strokeColor=#000000;fontFamily=Times New Roman;fontSize=10;fontColor=#000000;fillColor=none;" vertex="1" parent="20">
                    <mxGeometry width="60" height="10" as="geometry"/>
                </mxCell>
                <mxCell id="16" value="&lt;font style=&quot;font-size: 10px;&quot;&gt;communication&lt;/font&gt;" style="rounded=0;whiteSpace=wrap;html=1;strokeColor=#000000;fontFamily=Times New Roman;fontSize=12;fontColor=#000000;fillColor=none;verticalAlign=middle;" vertex="1" parent="20">
                    <mxGeometry x="60" width="70" height="10" as="geometry"/>
                </mxCell>
                <mxCell id="21" value="" style="group" vertex="1" connectable="0" parent="1">
                    <mxGeometry x="110" y="180" width="130" height="10" as="geometry"/>
                </mxCell>
                <mxCell id="22" value="computation" style="rounded=0;whiteSpace=wrap;html=1;strokeColor=#000000;fontFamily=Times New Roman;fontSize=10;fontColor=#000000;fillColor=none;" vertex="1" parent="21">
                    <mxGeometry width="60" height="10" as="geometry"/>
                </mxCell>
                <mxCell id="23" value="&lt;font style=&quot;font-size: 10px;&quot;&gt;communication&lt;/font&gt;" style="rounded=0;whiteSpace=wrap;html=1;strokeColor=#000000;fontFamily=Times New Roman;fontSize=12;fontColor=#000000;fillColor=none;verticalAlign=middle;" vertex="1" parent="21">
                    <mxGeometry x="60" width="70" height="10" as="geometry"/>
                </mxCell>
                <mxCell id="24" value="" style="group" vertex="1" connectable="0" parent="1">
                    <mxGeometry x="110" y="190" width="130" height="10" as="geometry"/>
                </mxCell>
                <mxCell id="25" value="computation" style="rounded=0;whiteSpace=wrap;html=1;strokeColor=#000000;fontFamily=Times New Roman;fontSize=10;fontColor=#000000;fillColor=none;" vertex="1" parent="24">
                    <mxGeometry width="60" height="10" as="geometry"/>
                </mxCell>
                <mxCell id="26" value="&lt;font style=&quot;font-size: 10px;&quot;&gt;communication&lt;/font&gt;" style="rounded=0;whiteSpace=wrap;html=1;strokeColor=#000000;fontFamily=Times New Roman;fontSize=12;fontColor=#000000;fillColor=none;verticalAlign=middle;" vertex="1" parent="24">
                    <mxGeometry x="60" width="70" height="10" as="geometry"/>
                </mxCell>
                <mxCell id="27" value="" style="group" vertex="1" connectable="0" parent="1">
                    <mxGeometry x="110" y="200" width="130" height="10" as="geometry"/>
                </mxCell>
                <mxCell id="28" value="computation" style="rounded=0;whiteSpace=wrap;html=1;strokeColor=#000000;fontFamily=Times New Roman;fontSize=10;fontColor=#000000;fillColor=none;" vertex="1" parent="27">
                    <mxGeometry width="60" height="10" as="geometry"/>
                </mxCell>
                <mxCell id="29" value="&lt;font style=&quot;font-size: 10px;&quot;&gt;communication&lt;/font&gt;" style="rounded=0;whiteSpace=wrap;html=1;strokeColor=#000000;fontFamily=Times New Roman;fontSize=12;fontColor=#000000;fillColor=none;verticalAlign=middle;" vertex="1" parent="27">
                    <mxGeometry x="60" width="70" height="10" as="geometry"/>
                </mxCell>
                <mxCell id="30" value="" style="group" vertex="1" connectable="0" parent="1">
                    <mxGeometry x="110" y="210" width="130" height="10" as="geometry"/>
                </mxCell>
                <mxCell id="31" value="computation" style="rounded=0;whiteSpace=wrap;html=1;strokeColor=#000000;fontFamily=Times New Roman;fontSize=10;fontColor=#000000;fillColor=none;" vertex="1" parent="30">
                    <mxGeometry width="60" height="10" as="geometry"/>
                </mxCell>
                <mxCell id="32" value="&lt;font style=&quot;font-size: 10px;&quot;&gt;communication&lt;/font&gt;" style="rounded=0;whiteSpace=wrap;html=1;strokeColor=#000000;fontFamily=Times New Roman;fontSize=12;fontColor=#000000;fillColor=none;verticalAlign=middle;" vertex="1" parent="30">
                    <mxGeometry x="60" width="70" height="10" as="geometry"/>
                </mxCell>
                <mxCell id="33" value="" style="group" vertex="1" connectable="0" parent="1">
                    <mxGeometry x="110" y="220" width="130" height="10" as="geometry"/>
                </mxCell>
                <mxCell id="34" value="computation" style="rounded=0;whiteSpace=wrap;html=1;strokeColor=#000000;fontFamily=Times New Roman;fontSize=10;fontColor=#000000;fillColor=none;" vertex="1" parent="33">
                    <mxGeometry width="60" height="10" as="geometry"/>
                </mxCell>
                <mxCell id="35" value="&lt;font style=&quot;font-size: 10px;&quot;&gt;communication&lt;/font&gt;" style="rounded=0;whiteSpace=wrap;html=1;strokeColor=#000000;fontFamily=Times New Roman;fontSize=12;fontColor=#000000;fillColor=none;verticalAlign=middle;" vertex="1" parent="33">
                    <mxGeometry x="60" width="70" height="10" as="geometry"/>
                </mxCell>
                <mxCell id="36" value="&lt;font style=&quot;font-size: 12px;&quot; face=&quot;Times New Roman&quot; color=&quot;#000000&quot;&gt;NI&lt;br&gt;Local Events&lt;br&gt;&lt;/font&gt;" style="rounded=0;whiteSpace=wrap;html=1;strokeColor=#000000;fillColor=none;align=center;verticalAlign=middle;" vertex="1" parent="1">
                    <mxGeometry x="120" y="280" width="80" height="40" as="geometry"/>
                </mxCell>
                <mxCell id="45" value="" style="endArrow=blockThin;html=1;fontFamily=Times New Roman;fontSize=14;fontColor=#000000;strokeColor=#000000;endFill=1;" edge="1" parent="1">
                    <mxGeometry width="50" height="50" relative="1" as="geometry">
                        <mxPoint x="150" y="240" as="sourcePoint"/>
                        <mxPoint x="150" y="280" as="targetPoint"/>
                    </mxGeometry>
                </mxCell>
                <mxCell id="46" value="event" style="text;html=1;strokeColor=none;fillColor=none;align=right;verticalAlign=middle;whiteSpace=wrap;rounded=0;fontFamily=Times New Roman;fontSize=14;fontColor=#000000;" vertex="1" parent="1">
                    <mxGeometry x="70" y="250" width="80" height="20" as="geometry"/>
                </mxCell>
                <mxCell id="47" value="" style="endArrow=blockThin;html=1;fontFamily=Times New Roman;fontSize=14;fontColor=#000000;strokeColor=#000000;endFill=1;" edge="1" parent="1">
                    <mxGeometry width="50" height="50" relative="1" as="geometry">
                        <mxPoint x="170" y="280" as="sourcePoint"/>
                        <mxPoint x="170" y="240" as="targetPoint"/>
                    </mxGeometry>
                </mxCell>
                <mxCell id="48" value="communication time" style="text;html=1;strokeColor=none;fillColor=none;align=left;verticalAlign=middle;whiteSpace=wrap;rounded=0;fontFamily=Times New Roman;fontSize=14;fontColor=#000000;" vertex="1" parent="1">
                    <mxGeometry x="170" y="250" width="120" height="20" as="geometry"/>
                </mxCell>
                <mxCell id="49" value="&lt;font style=&quot;font-size: 12px;&quot; face=&quot;Times New Roman&quot; color=&quot;#000000&quot;&gt;Node&lt;/font&gt;" style="rounded=0;whiteSpace=wrap;html=1;strokeColor=#000000;fillColor=none;align=left;verticalAlign=top;" vertex="1" parent="1">
                    <mxGeometry x="360" y="160" width="160" height="80" as="geometry"/>
                </mxCell>
                <mxCell id="50" value="" style="endArrow=blockThin;html=1;fontFamily=Times New Roman;fontSize=14;fontColor=#000000;strokeColor=#000000;endFill=1;" edge="1" parent="1">
                    <mxGeometry width="50" height="50" relative="1" as="geometry">
                        <mxPoint x="420" y="160" as="sourcePoint"/>
                        <mxPoint x="420" y="120" as="targetPoint"/>
                    </mxGeometry>
                </mxCell>
                <mxCell id="51" value="&lt;font style=&quot;font-size: 14px;&quot; face=&quot;Times New Roman&quot; color=&quot;#000000&quot;&gt;Computation API&lt;/font&gt;" style="rounded=0;whiteSpace=wrap;html=1;strokeColor=#000000;fillColor=none;" vertex="1" parent="1">
                    <mxGeometry x="390" y="80" width="100" height="40" as="geometry"/>
                </mxCell>
                <mxCell id="52" value="parameters" style="text;html=1;strokeColor=none;fillColor=none;align=right;verticalAlign=middle;whiteSpace=wrap;rounded=0;fontFamily=Times New Roman;fontSize=14;fontColor=#000000;" vertex="1" parent="1">
                    <mxGeometry x="340" y="130" width="80" height="20" as="geometry"/>
                </mxCell>
                <mxCell id="53" value="computation time" style="text;html=1;strokeColor=none;fillColor=none;align=left;verticalAlign=middle;whiteSpace=wrap;rounded=0;fontFamily=Times New Roman;fontSize=14;fontColor=#000000;" vertex="1" parent="1">
                    <mxGeometry x="460" y="130" width="110" height="20" as="geometry"/>
                </mxCell>
                <mxCell id="54" value="" style="endArrow=blockThin;html=1;fontFamily=Times New Roman;fontSize=14;fontColor=#000000;strokeColor=#000000;endFill=1;" edge="1" parent="1">
                    <mxGeometry width="50" height="50" relative="1" as="geometry">
                        <mxPoint x="460" y="120" as="sourcePoint"/>
                        <mxPoint x="460" y="160" as="targetPoint"/>
                    </mxGeometry>
                </mxCell>
                <mxCell id="55" value="" style="endArrow=blockThin;html=1;fontFamily=Times New Roman;fontSize=14;fontColor=#000000;strokeColor=#000000;endFill=1;" edge="1" parent="1">
                    <mxGeometry width="50" height="50" relative="1" as="geometry">
                        <mxPoint x="410" y="320" as="sourcePoint"/>
                        <mxPoint x="410" y="360" as="targetPoint"/>
                    </mxGeometry>
                </mxCell>
                <mxCell id="56" value="" style="endArrow=blockThin;html=1;fontFamily=Times New Roman;fontSize=14;fontColor=#000000;strokeColor=#000000;endFill=1;" edge="1" parent="1">
                    <mxGeometry width="50" height="50" relative="1" as="geometry">
                        <mxPoint x="470" y="360" as="sourcePoint"/>
                        <mxPoint x="470" y="320" as="targetPoint"/>
                    </mxGeometry>
                </mxCell>
                <mxCell id="57" value="receive" style="text;html=1;strokeColor=none;fillColor=none;align=left;verticalAlign=middle;whiteSpace=wrap;rounded=0;fontFamily=Times New Roman;fontSize=14;fontColor=#000000;" vertex="1" parent="1">
                    <mxGeometry x="470" y="330" width="110" height="20" as="geometry"/>
                </mxCell>
                <mxCell id="58" value="" style="group" vertex="1" connectable="0" parent="1">
                    <mxGeometry x="390" y="170" width="130" height="10" as="geometry"/>
                </mxCell>
                <mxCell id="59" value="computation" style="rounded=0;whiteSpace=wrap;html=1;strokeColor=#000000;fontFamily=Times New Roman;fontSize=10;fontColor=#000000;fillColor=none;" vertex="1" parent="58">
                    <mxGeometry width="60" height="10" as="geometry"/>
                </mxCell>
                <mxCell id="60" value="&lt;font style=&quot;font-size: 10px;&quot;&gt;communication&lt;/font&gt;" style="rounded=0;whiteSpace=wrap;html=1;strokeColor=#000000;fontFamily=Times New Roman;fontSize=12;fontColor=#000000;fillColor=none;verticalAlign=middle;" vertex="1" parent="58">
                    <mxGeometry x="60" width="70" height="10" as="geometry"/>
                </mxCell>
                <mxCell id="61" value="" style="group" vertex="1" connectable="0" parent="1">
                    <mxGeometry x="390" y="180" width="130" height="10" as="geometry"/>
                </mxCell>
                <mxCell id="62" value="computation" style="rounded=0;whiteSpace=wrap;html=1;strokeColor=#000000;fontFamily=Times New Roman;fontSize=10;fontColor=#000000;fillColor=none;" vertex="1" parent="61">
                    <mxGeometry width="60" height="10" as="geometry"/>
                </mxCell>
                <mxCell id="63" value="&lt;font style=&quot;font-size: 10px;&quot;&gt;communication&lt;/font&gt;" style="rounded=0;whiteSpace=wrap;html=1;strokeColor=#000000;fontFamily=Times New Roman;fontSize=12;fontColor=#000000;fillColor=none;verticalAlign=middle;" vertex="1" parent="61">
                    <mxGeometry x="60" width="70" height="10" as="geometry"/>
                </mxCell>
                <mxCell id="64" value="" style="group" vertex="1" connectable="0" parent="1">
                    <mxGeometry x="390" y="190" width="130" height="10" as="geometry"/>
                </mxCell>
                <mxCell id="65" value="computation" style="rounded=0;whiteSpace=wrap;html=1;strokeColor=#000000;fontFamily=Times New Roman;fontSize=10;fontColor=#000000;fillColor=none;" vertex="1" parent="64">
                    <mxGeometry width="60" height="10" as="geometry"/>
                </mxCell>
                <mxCell id="66" value="&lt;font style=&quot;font-size: 10px;&quot;&gt;communication&lt;/font&gt;" style="rounded=0;whiteSpace=wrap;html=1;strokeColor=#000000;fontFamily=Times New Roman;fontSize=12;fontColor=#000000;fillColor=none;verticalAlign=middle;" vertex="1" parent="64">
                    <mxGeometry x="60" width="70" height="10" as="geometry"/>
                </mxCell>
                <mxCell id="67" value="" style="group" vertex="1" connectable="0" parent="1">
                    <mxGeometry x="390" y="200" width="130" height="10" as="geometry"/>
                </mxCell>
                <mxCell id="68" value="computation" style="rounded=0;whiteSpace=wrap;html=1;strokeColor=#000000;fontFamily=Times New Roman;fontSize=10;fontColor=#000000;fillColor=none;" vertex="1" parent="67">
                    <mxGeometry width="60" height="10" as="geometry"/>
                </mxCell>
                <mxCell id="69" value="&lt;font style=&quot;font-size: 10px;&quot;&gt;communication&lt;/font&gt;" style="rounded=0;whiteSpace=wrap;html=1;strokeColor=#000000;fontFamily=Times New Roman;fontSize=12;fontColor=#000000;fillColor=none;verticalAlign=middle;" vertex="1" parent="67">
                    <mxGeometry x="60" width="70" height="10" as="geometry"/>
                </mxCell>
                <mxCell id="70" value="" style="group" vertex="1" connectable="0" parent="1">
                    <mxGeometry x="390" y="210" width="130" height="10" as="geometry"/>
                </mxCell>
                <mxCell id="71" value="computation" style="rounded=0;whiteSpace=wrap;html=1;strokeColor=#000000;fontFamily=Times New Roman;fontSize=10;fontColor=#000000;fillColor=none;" vertex="1" parent="70">
                    <mxGeometry width="60" height="10" as="geometry"/>
                </mxCell>
                <mxCell id="72" value="&lt;font style=&quot;font-size: 10px;&quot;&gt;communication&lt;/font&gt;" style="rounded=0;whiteSpace=wrap;html=1;strokeColor=#000000;fontFamily=Times New Roman;fontSize=12;fontColor=#000000;fillColor=none;verticalAlign=middle;" vertex="1" parent="70">
                    <mxGeometry x="60" width="70" height="10" as="geometry"/>
                </mxCell>
                <mxCell id="73" value="" style="group" vertex="1" connectable="0" parent="1">
                    <mxGeometry x="390" y="220" width="130" height="10" as="geometry"/>
                </mxCell>
                <mxCell id="74" value="computation" style="rounded=0;whiteSpace=wrap;html=1;strokeColor=#000000;fontFamily=Times New Roman;fontSize=10;fontColor=#000000;fillColor=none;" vertex="1" parent="73">
                    <mxGeometry width="60" height="10" as="geometry"/>
                </mxCell>
                <mxCell id="75" value="&lt;font style=&quot;font-size: 10px;&quot;&gt;communication&lt;/font&gt;" style="rounded=0;whiteSpace=wrap;html=1;strokeColor=#000000;fontFamily=Times New Roman;fontSize=12;fontColor=#000000;fillColor=none;verticalAlign=middle;" vertex="1" parent="73">
                    <mxGeometry x="60" width="70" height="10" as="geometry"/>
                </mxCell>
                <mxCell id="76" value="&lt;font style=&quot;font-size: 12px;&quot; face=&quot;Times New Roman&quot; color=&quot;#000000&quot;&gt;NI&lt;br&gt;Local Events&lt;br&gt;&lt;/font&gt;" style="rounded=0;whiteSpace=wrap;html=1;strokeColor=#000000;fillColor=none;align=center;verticalAlign=middle;" vertex="1" parent="1">
                    <mxGeometry x="400" y="280" width="80" height="40" as="geometry"/>
                </mxCell>
                <mxCell id="77" value="" style="endArrow=blockThin;html=1;fontFamily=Times New Roman;fontSize=14;fontColor=#000000;strokeColor=#000000;endFill=1;" edge="1" parent="1">
                    <mxGeometry width="50" height="50" relative="1" as="geometry">
                        <mxPoint x="430" y="240" as="sourcePoint"/>
                        <mxPoint x="430" y="280" as="targetPoint"/>
                    </mxGeometry>
                </mxCell>
                <mxCell id="78" value="event" style="text;html=1;strokeColor=none;fillColor=none;align=right;verticalAlign=middle;whiteSpace=wrap;rounded=0;fontFamily=Times New Roman;fontSize=14;fontColor=#000000;" vertex="1" parent="1">
                    <mxGeometry x="350" y="250" width="80" height="20" as="geometry"/>
                </mxCell>
                <mxCell id="79" value="" style="endArrow=blockThin;html=1;fontFamily=Times New Roman;fontSize=14;fontColor=#000000;strokeColor=#000000;endFill=1;" edge="1" parent="1">
                    <mxGeometry width="50" height="50" relative="1" as="geometry">
                        <mxPoint x="450" y="280" as="sourcePoint"/>
                        <mxPoint x="450" y="240" as="targetPoint"/>
                    </mxGeometry>
                </mxCell>
                <mxCell id="80" value="communication time" style="text;html=1;strokeColor=none;fillColor=none;align=left;verticalAlign=middle;whiteSpace=wrap;rounded=0;fontFamily=Times New Roman;fontSize=14;fontColor=#000000;" vertex="1" parent="1">
                    <mxGeometry x="450" y="250" width="120" height="20" as="geometry"/>
                </mxCell>
                <mxCell id="81" value="&lt;font style=&quot;font-size: 18px;&quot;&gt;...&lt;/font&gt;" style="text;html=1;strokeColor=none;fillColor=none;align=center;verticalAlign=middle;whiteSpace=wrap;rounded=0;fontFamily=Times New Roman;fontSize=14;fontColor=#000000;" vertex="1" parent="1">
                    <mxGeometry x="600" y="230" width="110" height="20" as="geometry"/>
                </mxCell>
            </root>
        </mxGraphModel>
    </diagram>
</mxfile>